<?xml version="1.0" encoding="UTF-8" standalone="no"?>
<svg
   xmlns:dc="http://purl.org/dc/elements/1.1/"
   xmlns:cc="http://creativecommons.org/ns#"
   xmlns:rdf="http://www.w3.org/1999/02/22-rdf-syntax-ns#"
   xmlns:svg="http://www.w3.org/2000/svg"
   xmlns="http://www.w3.org/2000/svg"
   version="1.1"
   id="svg2"
   viewBox="0 0 744.09449 540.00001"
   height="6in"
   width="8.2677164in">
  <defs
     id="defs4">
    <filter
       height="1.256777"
       y="-0.12838855"
       width="1.1302143"
       x="-0.065107167"
       id="filter4230"
       style="color-interpolation-filters:sRGB">
      <feGaussianBlur
         id="feGaussianBlur4232"
         stdDeviation="23.056819" />
    </filter>
    <mask
       id="mask4618"
       maskUnits="userSpaceOnUse">
      <rect
         ry="0"
         y="340.84369"
         x="-16.414412"
         height="530.90369"
         width="837.51056"
         id="rect4620"
         style="opacity:1;fill:#ffd5d5;fill-opacity:0.9921568;stroke:#000000;stroke-width:0;stroke-miterlimit:4;stroke-dasharray:none;stroke-opacity:1" />
    </mask>
    <mask
       id="mask4622"
       maskUnits="userSpaceOnUse">
      <rect
         ry="0"
         y="385.54297"
         x="69.009659"
         height="505.73904"
         width="704.92737"
         id="rect4624"
         style="opacity:1;fill:#ffd5d5;fill-opacity:0.9921568;stroke:#000000;stroke-width:0;stroke-miterlimit:4;stroke-dasharray:none;stroke-opacity:1" />
    </mask>
  </defs>
  <metadata
     id="metadata7">
    <rdf:RDF>
      <cc:Work
         rdf:about="">
        <dc:format>image/svg+xml</dc:format>
        <dc:type
           rdf:resource="http://purl.org/dc/dcmitype/StillImage" />
        <dc:title></dc:title>
      </cc:Work>
    </rdf:RDF>
  </metadata>
  <g
     transform="translate(0,-512.36217)"
     id="layer1">
    <path
       mask="url(#mask4622)"
       transform="matrix(1.059243,0,0,0.99362806,-73.097999,166.04334)"
       id="path4136"
       d="M -4.3602298,420.12887 C 131.89695,371.07628 120.99638,560.74628 306.30615,586.90766 c 185.30977,26.16138 291.04535,-5.45029 370.61955,-46.87248 135.04798,-70.29895 129.71684,-15.2608 126.44667,71.9438 -3.27018,87.2046 1.09005,222.37173 1.09005,222.37173 L 0,843.07117 c 0,0 -99.195231,-361.89908 -4.3602298,-422.9423 z"
       style="fill:#9ecbac;fill-opacity:0.75177307;fill-rule:evenodd;stroke:#000000;stroke-width:0;stroke-linecap:butt;stroke-linejoin:miter;stroke-miterlimit:4;stroke-dasharray:none;stroke-opacity:1;filter:url(#filter4230)" />
    <path
       mask="url(#mask4618)"
       transform="matrix(0.8915582,0,0,0.94653041,14.634403,226.51073)"
       style="fill:#d085eb;fill-opacity:0.47517736;fill-rule:evenodd;stroke:#000000;stroke-width:0;stroke-linecap:butt;stroke-linejoin:miter;stroke-miterlimit:4;stroke-dasharray:none;stroke-opacity:1;filter:url(#filter4230)"
       d="M 92.654887,507.33347 C 228.91206,458.28088 299.7658,387.42714 485.07557,413.58852 c 185.30977,26.16138 240.90271,81.75431 320.47691,40.33212 135.04798,-70.29895 129.71684,-15.2608 126.44667,71.9438 -3.27018,87.2046 1.09005,222.37173 1.09005,222.37173 l -804.46242,8.72046 c 0,0 -130.8068957,-188.57994 -35.971893,-249.62316 z"
       id="path4234" />
  </g>
</svg>
