<?xml version="1.0" encoding="UTF-8" standalone="no"?>
<!-- Created with Inkscape (http://www.inkscape.org/) -->

<svg
   xmlns:dc="http://purl.org/dc/elements/1.1/"
   xmlns:cc="http://creativecommons.org/ns#"
   xmlns:rdf="http://www.w3.org/1999/02/22-rdf-syntax-ns#"
   xmlns:svg="http://www.w3.org/2000/svg"
   xmlns="http://www.w3.org/2000/svg"
   xmlns:sodipodi="http://sodipodi.sourceforge.net/DTD/sodipodi-0.dtd"
   xmlns:inkscape="http://www.inkscape.org/namespaces/inkscape"
   width="7.288744in"
   height="1.7665319in"
   viewBox="0 0 655.98694 158.98787"
   id="svg5448"
   version="1.1"
   inkscape:version="0.91 r13725"
   sodipodi:docname="OT Photo &amp; Design Logo_(white).svg">
  <defs
     id="defs5450">
    <clipPath
       clipPathUnits="userSpaceOnUse"
       id="clipPath5108">
      <path
         d="m 246.693,136.297 c -1.159,-0.428 -2.496,-0.822 -4.157,-0.978 l 0,0 c -0.864,-0.083 -1.702,-0.624 -2.552,-0.752 l 0,0 c -0.438,-0.065 -0.898,-0.037 -1.359,-0.01 l 0,0 c -0.404,0.024 -0.808,0.048 -1.2,0.01 l 0,0 c -1.062,-0.105 -2.104,-0.634 -3.154,-0.753 l 0,0 c -0.464,-0.051 -0.921,-0.024 -1.365,0.002 l 0,0 c -0.463,0.028 -0.912,0.056 -1.34,-0.002 l 0,0 c -0.641,-0.083 -1.215,-0.514 -1.803,-0.601 l 0,0 c -1.61,-0.241 -2.351,-0.096 -3.608,-0.75 l 0,0 c -1.216,-0.636 -2.468,-2.082 -3.305,-2.104 l 0,0 c -0.402,-0.011 -0.681,0.181 -0.948,0.375 l 0,0 c -0.263,0.191 -0.515,0.381 -0.858,0.376 l 0,0 c -1.351,-0.018 -1.668,-1.823 -2.853,-1.353 l 0,0 c -0.545,1.179 1.269,1.212 1.655,1.953 l 0,0 c 0.55,0.315 1.094,0.634 1.645,0.953 l 0,0 c -0.116,-0.04 -0.218,-0.092 -0.333,-0.127 l 0,0 c -4.498,-1.436 -9.287,-2.418 -14.151,-3.048 l 0,0 c -0.453,-0.265 -0.925,-0.525 -1.441,-0.783 l 0,0 c -1.911,-0.952 -4.925,-0.483 -8.266,-0.752 l 0,0 c 0.134,0.185 0.299,0.334 0.441,0.513 l 0,0 c -4.043,-1.031 -8.152,-1.481 -12.322,-1.628 l 0,0 c -1.15,-0.188 -2.112,-0.87 -3.296,-1.137 l 0,0 c -1.796,-0.404 -3.969,-0.283 -6.172,-0.162 l 0,0 c -1.792,0.098 -3.604,0.196 -5.25,0.013 l 0,0 c -0.561,-0.563 0.975,-1.3 0,-1.806 l 0,0 c -0.651,-0.577 -0.263,0.851 -0.6,1.051 l 0,0 c -0.754,-0.1 -0.866,-0.836 -1.352,-1.201 l 0,0 c -1.051,0.127 -1.935,-0.143 -2.555,0.6 l 0,0 c -0.706,0.107 -0.597,-0.607 -1.051,-0.75 l 0,0 c -0.263,-0.028 -0.367,0.104 -0.47,0.236 l 0,0 c -0.117,0.15 -0.234,0.299 -0.584,0.216 l 0,0 c -1.82,-0.281 -5.021,-0.766 -7.061,-1.052 l 0,0 c -1.396,-0.196 -2.728,0.057 -4.042,0.311 l 0,0 c -1.362,0.263 -2.705,0.526 -4.077,0.289 l 0,0 c -0.593,-0.101 -1.054,-0.62 -1.651,-0.751 l 0,0 c -0.276,-0.061 -0.574,-0.035 -0.874,-0.01 l 0,0 c -0.263,0.024 -0.527,0.046 -0.78,0.01 l 0,0 c -0.537,-0.077 -0.978,-0.512 -1.503,-0.604 l 0,0 c -0.514,-0.088 -1.05,-0.055 -1.589,-0.02 l 0,0 c -0.422,0.026 -0.848,0.053 -1.266,0.02 l 0,0 c -1.583,-0.117 -3.153,-0.622 -4.81,-0.751 l 0,0 c -2.175,-0.168 -4.407,-0.096 -6.665,-0.023 l 0,0 c -2.021,0.065 -4.065,0.13 -6.108,0.023 l 0,0 c -1.05,1.156 -2.325,2.084 -3.756,2.856 l 0,0 c -3.081,-0.693 -7.495,-1.714 -10.671,-0.901 l 0,0 c -0.018,0.576 -0.025,1.216 -0.034,1.827 l 0,0 c -0.27,-0.212 -0.562,-0.416 -0.791,-0.642 l 0,0 c -1.452,-1.419 -1.036,-1.262 -1.252,-3.826 l 0,0 c 0.144,0.022 0.264,0.078 0.422,0.087 l 0,0 c -0.259,-4.268 3.095,-4.925 3.761,-8.266 l 0,0 c 3.769,-1.441 9.469,-0.95 14.123,-1.502 l 0,0 c 0.898,1.698 2.222,1.652 2.857,0 l 0,0 c 1.807,-0.383 2.82,0.443 3.908,0.599 l 0,0 c 0.218,0.031 0.458,0.01 0.697,-0.012 l 0,0 c 0.282,-0.024 0.563,-0.049 0.806,0.012 l 0,0 c 1.074,0.274 1.857,1.309 2.854,1.502 l 0,0 c 1.409,0.276 2.947,0.165 4.513,0.054 l 0,0 c 1.302,-0.092 2.624,-0.184 3.905,-0.054 l 0,0 c 0.859,0.091 1.73,0.512 2.554,0.602 l 0,0 c 1.17,0.13 2.412,-0.004 3.605,0.153 l 0,0 c 3.363,0.447 7.886,0.643 11.872,0.601 l 0,0 c 0.154,-0.002 0.346,0.019 0.555,0.038 l 0,0 c 0.704,0.07 1.593,0.139 1.851,-0.639 l 0,0 c -0.32,-1.155 -1.905,-1.183 -2.104,-2.406 l 0,0 c -0.095,-0.572 0.582,-1.482 0.751,-2.707 l 0,0 c 0.08,-0.577 -0.104,-1.101 0,-1.501 l 0,0 c 0.118,-0.453 0.513,-0.784 0.6,-1.201 l 0,0 c 0.283,-1.323 0.627,-3.178 0.601,-4.21 l 0,0 c -0.028,-1.184 -0.694,-2.118 -0.748,-3.006 l 0,0 c -0.098,-1.512 0.637,-2.561 0.9,-4.355 l 0,0 c 0.078,-0.523 -0.119,-1.213 0,-1.804 l 0,0 c 0.121,-0.611 0.641,-1.203 0.752,-1.807 l 0,0 c 0.301,-1.666 0.274,-3.377 0.598,-5.107 l 0,0 c 0.129,-0.666 0.639,-1.265 0.752,-1.954 l 0,0 c 0.106,-0.629 -0.098,-1.347 0,-1.953 l 0,0 c 0.093,-0.55 0.487,-1.111 0.602,-1.655 l 0,0 c 0.172,-0.812 0.016,-1.727 0.152,-2.553 l 0,0 c 0.099,-0.606 0.518,-1.186 0.6,-1.803 l 0,0 c 0.107,-0.768 -0.101,-1.624 0,-2.406 l 0,0 c 0.259,-1.982 1.153,-4.26 0.901,-6.76 l 0,0 c -0.249,-0.44 -0.847,-0.563 -1.501,-0.905 l 0,0 c -0.023,-0.012 -0.047,-0.022 -0.067,-0.035 l 0,0 c 0.196,-0.603 0.357,-1.224 0.485,-1.855 l 0,0 c 1.247,-2.016 2.367,-4.119 3.279,-6.344 l 0,0 c 2.337,0.228 4.913,0.277 7.029,0.078 l 0,0 c 2.483,1.867 4.47,4.051 5.797,6.56 l 0,0 c -0.129,0.509 -0.225,1.022 -0.301,1.538 l 0,0 c -0.562,-0.241 -0.802,-1.039 -1.646,-0.54 l 0,0 c 1.038,2.085 0.873,6.305 0.154,8.712 l 0,0 c -1.42,0.69 -3.484,0.729 -4.362,1.957 l 0,0 0,7.664 c -0.688,0.711 -1.417,1.388 -2.103,2.103 l 0,0 c 0.343,0.994 -0.569,1.879 -0.752,2.856 l 0,0 c -0.109,0.585 0.099,1.326 0,1.956 l 0,0 c -0.106,0.67 -0.525,1.218 -0.601,1.804 l 0,0 c -0.141,1.059 0.074,2.37 -0.149,3.603 l 0,0 c -0.137,0.748 -0.521,1.346 -0.604,2.105 l 0,0 c -0.134,1.261 0.173,2.767 0,4.209 l 0,0 c -0.081,0.685 -0.481,1.476 -0.6,2.252 l 0,0 c -0.223,1.471 0.047,3.008 -0.149,4.059 l 0,0 c -0.302,1.61 -0.859,2.293 -0.6,3.306 l 0,0 c 0.152,0.604 1.06,1.262 1.651,1.952 l 0,0 c 1.131,1.33 1.855,2.216 3.158,2.857 l 0,0 c 14.452,0.07 26.589,2.463 40.123,3.455 l 0,0 c 0.61,0.6 -0.91,0.605 -0.298,1.205 l 0,0 c 2.677,0.131 4.181,0.265 5.708,1.05 l 0,0 c 0.609,-0.307 1.125,-0.146 1.584,0.014 l 0,0 c 0.53,0.186 0.985,0.372 1.422,-0.166 l 0,0 c 2.102,0.855 4.844,1.07 6.164,2.706 l 0,0 c 2.377,-0.462 4.411,0.523 6.61,0.755 l 0,0 c 0.301,0.031 0.616,0.009 0.937,-0.014 l 0,0 c 0.384,-0.026 0.776,-0.052 1.166,0.014 l 0,0 c 0.487,0.078 0.985,0.484 1.504,0.6 l 0,0 c 0.649,0.14 1.338,0.002 1.953,0.149 l 0,0 c 1.5,0.359 3.545,1.073 4.809,1.353 l 0,0 c 0.22,0.049 0.456,0.025 0.692,0.003 l 0,0 c 0.224,-0.022 0.449,-0.043 0.661,-0.003 l 0,0 c 0.461,0.088 0.891,0.488 1.352,0.6 l 0,0 c 1.082,0.267 2.213,0.57 3.156,0.749 l 0,0 c 0.376,0.076 0.733,0.124 1.094,0.179 l 0,0 c -0.025,0.322 -0.041,0.643 -0.076,0.963 l 0,0 c -0.064,0.656 -0.151,1.4 -0.26,2.155 l 0,0 c -1.824,1.276 -3.502,2.79 -5.094,4.385 l 0,0 c -1.404,-0.379 -2.908,-0.495 -4.431,-0.388"
         id="path5110"
         inkscape:connector-curvature="0" />
    </clipPath>
    <clipPath
       clipPathUnits="userSpaceOnUse"
       id="clipPath5088">
      <path
         d="m 0,590 619.333,0 0,-590 L 0,0 0,590 Z"
         id="path5090"
         inkscape:connector-curvature="0" />
    </clipPath>
    <clipPath
       clipPathUnits="userSpaceOnUse"
       id="clipPath5076">
      <path
         d="m 460.599,114.642 0,-22.924 c -1.467,3.088 -4.555,4.973 -8.217,4.973 l 0,0 c -5.652,0 -9.998,-4.607 -9.998,-10.102 l 0,0 c 0,-5.548 4.346,-10.102 9.998,-10.102 l 0,0 c 3.35,0 6.28,1.728 8.217,4.921 l 0,0 0,-4.449 1.727,0.524 0,37.682 -1.727,-0.523 z M 444.165,86.589 c 0,4.605 3.559,8.375 8.217,8.375 l 0,0 c 4.659,0 8.164,-3.717 8.164,-8.375 l 0,0 c 0,-4.658 -3.558,-8.374 -8.164,-8.374 l 0,0 c -4.605,0 -8.217,3.769 -8.217,8.374 m -95.148,28.053 0,-37.893 1.676,0.472 0,10.624 c 0,4.031 2.668,6.961 5.966,6.961 l 0,0 c 3.401,0 5.024,-2.092 5.024,-6.333 l 0,0 0,-11.724 1.726,0.472 0,11.2 c 0,5.286 -1.83,8.008 -6.279,8.008 l 0,0 c -2.67,0 -5.128,-1.413 -6.437,-3.664 l 0,0 0,22.4 -1.676,-0.523 z m -154.126,0 0,-37.893 1.674,0.472 0,10.624 c 0,4.031 2.669,6.961 5.967,6.961 l 0,0 c 3.402,0 5.024,-2.092 5.024,-6.333 l 0,0 0,-11.724 1.727,0.472 0,11.2 c 0,5.286 -1.831,8.008 -6.28,8.008 l 0,0 c -2.669,0 -5.129,-1.413 -6.438,-3.664 l 0,0 0,22.4 -1.674,-0.523 z m 306.319,-10.519 1.676,-1.728 1.674,1.728 -1.674,1.674 -1.676,-1.674 z m -95.775,-5.078 c 0,-2.826 1.308,-4.867 3.822,-7.484 l 0,0 c -4.449,-2.407 -6.595,-5.024 -6.595,-8.426 l 0,0 c 0,-3.873 2.826,-6.91 6.752,-6.91 l 0,0 c 3.034,0 5.967,2.147 8.531,6.283 l 0,0 5.705,-5.759 1.15,1.258 -5.861,6.07 c 2.199,3.612 4.344,7.17 6.437,10.729 l 0,0 -1.256,0.838 c -2.303,-3.873 -4.396,-7.327 -6.384,-10.468 l 0,0 -5.967,6.176 c 4.396,2.355 6.541,4.763 6.541,7.955 l 0,0 c 0,3.716 -2.877,6.281 -6.123,6.281 l 0,0 c -3.873,0 -6.752,-3.088 -6.752,-6.543 m 1.729,-0.051 c 0,2.93 2.197,5.024 4.867,5.024 l 0,0 c 2.669,0 4.5,-2.041 4.5,-4.762 l 0,0 c 0,-2.723 -1.831,-4.868 -5.6,-6.91 l 0,0 c -2.459,2.46 -3.767,4.345 -3.767,6.648 m -2.723,-15.859 c 0,3.036 1.885,5.391 5.757,7.38 l 0,0 6.647,-6.856 c -2.406,-3.873 -4.605,-5.863 -7.378,-5.863 l 0,0 c -2.879,0 -5.026,2.199 -5.026,5.339 m -164.543,18.736 0,-5.861 -1.465,0 -0.418,-1.622 1.883,0 0,-10.625 c 0,-4.71 0.838,-6.961 5.025,-6.961 l 0,0 c 0.68,0 1.362,0.157 1.988,0.315 l 0,0 0.262,1.621 c -0.784,-0.156 -1.517,-0.261 -2.197,-0.261 l 0,0 c -2.773,0 -3.349,1.518 -3.349,5.128 l 0,0 0,10.783 5.652,0 0,1.622 -5.652,0 0,6.334 -1.729,-0.473 z M 519.58,96.219 c -0.889,0 -1.674,0.104 -2.356,0.104 l 0,0 c -4.92,0 -8.111,-2.93 -8.111,-7.274 l 0,0 c 0,-2.826 1.57,-4.867 4.449,-5.81 l 0,0 c -1.152,-0.365 -2.199,-0.993 -3.194,-1.831 l 0,0 0.942,-1.099 c 1.729,1.308 3.088,1.884 5.078,1.884 l 0,0 c 3.559,0 6.07,-2.407 6.07,-5.548 l 0,0 c 0,-1.1 -0.282,-2.115 -0.785,-2.983 l 0,0 -11.146,0 c -0.125,0.167 -0.248,0.342 -0.367,0.523 l 0,0 -0.216,-0.523 -135.199,0 10.909,21.772 -1.467,0.734 -7.588,-15.389 -7.955,15.493 -1.57,-0.786 8.583,-16.433 -2.752,-5.391 -46.863,0 0,7.746 c 1.467,-3.036 4.606,-4.868 8.27,-4.868 l 0,0 c 5.652,0 9.997,4.554 9.997,10.049 l 0,0 c 0,5.495 -4.345,10.102 -9.997,10.102 l 0,0 c -3.403,0 -6.491,-1.832 -8.27,-5.13 l 0,0 0,4.449 -1.673,-0.47 0,-21.878 -35.395,0 c 0.385,0.879 0.592,1.865 0.592,2.931 l 0,0 c 0,2.982 -1.729,5.443 -4.867,6.594 l 0,0 c 3.088,0.995 4.867,3.298 4.867,6.177 l 0,0 c 0,2.197 -1.047,4.291 -2.879,5.442 l 0,0 c 0.314,0 0.627,-0.052 0.941,-0.052 l 0,0 c 0.421,0 0.838,0.052 1.204,0.105 l 0,0 0.784,1.884 c -1.935,-0.262 -3.505,-0.524 -4.708,-0.524 l 0,0 c -0.891,0 -1.676,0.104 -2.356,0.104 l 0,0 c -4.92,0 -8.113,-2.93 -8.113,-7.274 l 0,0 c 0,-2.826 1.57,-4.867 4.449,-5.81 l 0,0 c -1.15,-0.365 -2.197,-0.993 -3.193,-1.831 l 0,0 0.943,-1.099 c 1.727,1.308 3.088,1.884 5.076,1.884 l 0,0 c 3.559,0 6.073,-2.407 6.073,-5.548 l 0,0 c 0,-1.1 -0.282,-2.115 -0.786,-2.983 l 0,0 -11.148,0 c -0.125,0.167 -0.248,0.342 -0.367,0.523 l 0,0 -0.216,-0.523 -103.355,0 0,7.746 c 1.465,-3.036 4.606,-4.868 8.269,-4.868 l 0,0 c 5.653,0 9.997,4.554 9.997,10.049 l 0,0 c 0,5.495 -4.344,10.102 -9.997,10.102 l 0,0 c -3.401,0 -6.489,-1.832 -8.269,-5.13 l 0,0 0,4.449 -1.675,-0.47 0,-21.878 -3.088,0 0,-1.464 3.088,0 0,-3.56 1.675,0.47 0,3.09 103.008,0 c 1.524,-1.811 3.854,-2.88 6.426,-2.88 l 0,0 c 2.931,0 5.312,1.082 6.742,2.88 l 0,0 36.278,0 0,-3.56 1.673,0.47 0,3.09 46.115,0 -1.578,-3.09 1.518,-0.731 1.915,3.821 135.584,0 c 1.524,-1.811 3.852,-2.88 6.425,-2.88 l 0,0 c 2.931,0 5.312,1.082 6.742,2.88 l 0,0 24.24,0 0,1.464 -23.358,0 c 0.386,0.879 0.592,1.865 0.592,2.931 l 0,0 c 0,2.982 -1.726,5.443 -4.867,6.594 l 0,0 c 3.088,0.995 4.867,3.298 4.867,6.177 l 0,0 c 0,2.197 -1.046,4.291 -2.878,5.442 l 0,0 c 0.314,0 0.628,-0.052 0.943,-0.052 l 0,0 c 0.418,0 0.836,0.052 1.204,0.105 l 0,0 0.784,1.884 c -1.937,-0.262 -3.505,-0.524 -4.71,-0.524 M 326.095,86.642 c 0,4.71 3.664,8.374 8.217,8.374 l 0,0 c 4.605,0 8.217,-3.769 8.217,-8.374 l 0,0 c 0,-4.606 -3.558,-8.427 -8.217,-8.427 l 0,0 c -4.658,0 -8.217,3.769 -8.217,8.427 m -154.128,0 c 0,4.71 3.663,8.374 8.217,8.374 l 0,0 c 4.606,0 8.218,-3.769 8.218,-8.374 l 0,0 c 0,-4.606 -3.559,-8.427 -8.218,-8.427 l 0,0 c -4.658,0 -8.217,3.769 -8.217,8.427 m 338.977,2.669 c 0,2.931 2.512,5.391 5.757,5.391 l 0,0 c 3.35,0 5.757,-2.565 5.757,-5.391 l 0,0 c 0,-2.826 -2.459,-5.339 -5.757,-5.339 l 0,0 c -3.245,0 -5.757,2.408 -5.757,5.339 m -234.673,0 c 0,2.931 2.512,5.391 5.758,5.391 l 0,0 c 3.349,0 5.758,-2.565 5.758,-5.391 l 0,0 c 0,-2.826 -2.462,-5.339 -5.758,-5.339 l 0,0 c -3.246,0 -5.758,2.408 -5.758,5.339 M 520.455,72.198 c -1.07,-0.92 -2.5,-1.467 -4.12,-1.467 l 0,0 c -1.74,0 -3.19,0.489 -4.41,1.467 l 0,0 8.53,0 z m -234.672,0 c -1.07,-0.92 -2.501,-1.467 -4.122,-1.467 l 0,0 c -1.738,0 -3.189,0.489 -4.409,1.467 l 0,0 8.531,0 z m 181.304,14.391 c 0,-5.81 4.45,-10.049 9.945,-10.049 l 0,0 c 2.095,0 4.03,0.577 5.967,1.832 l 0,0 0,1.832 c -1.937,-1.308 -3.872,-1.989 -5.967,-1.989 l 0,0 c -3.402,0 -6.072,1.78 -7.589,5.077 l 0,0 15.492,9.368 c -2.459,2.774 -4.658,4.031 -7.903,4.031 l 0,0 c -5.495,0 -9.945,-4.293 -9.945,-10.102 m 1.623,0.158 c 0,4.447 3.612,8.269 8.322,8.269 l 0,0 c 2.356,0 3.924,-0.89 5.183,-2.147 l 0,0 -13.348,-8.059 c -0.157,0.785 -0.157,1.413 -0.157,1.937 M 250.785,86.589 c 0,-5.6 4.397,-10.049 9.995,-10.049 l 0,0 c 5.653,0 10.05,4.554 10.05,10.049 l 0,0 c 0,5.548 -4.397,10.102 -10.05,10.102 l 0,0 c -5.598,0 -9.995,-4.501 -9.995,-10.102 m 1.832,0.053 c 0,4.71 3.611,8.374 8.163,8.374 l 0,0 c 4.607,0 8.217,-3.769 8.217,-8.374 l 0,0 c 0,-4.606 -3.558,-8.427 -8.217,-8.427 l 0,0 c -4.657,0 -8.163,3.769 -8.163,8.427 m -38.782,-0.053 c 0,-5.6 4.397,-10.049 9.998,-10.049 l 0,0 c 5.653,0 10.049,4.554 10.049,10.049 l 0,0 c 0,5.548 -4.396,10.102 -10.049,10.102 l 0,0 c -5.601,0 -9.998,-4.501 -9.998,-10.102 m 1.833,0.053 c 0,4.71 3.612,8.374 8.165,8.374 l 0,0 c 4.605,0 8.217,-3.769 8.217,-8.374 l 0,0 c 0,-4.606 -3.559,-8.427 -8.217,-8.427 l 0,0 c -4.658,0 -8.165,3.769 -8.165,8.427 m 271.255,4.501 c 0,-2.722 1.465,-3.874 4.397,-4.92 l 0,0 c 2.564,-0.943 4.029,-1.78 4.029,-4.239 l 0,0 c 0,-2.409 -1.674,-3.977 -3.926,-3.977 l 0,0 c -1.412,0 -2.72,0.731 -3.82,2.144 l 0,0 -0.942,-1.255 c 1.151,-1.518 2.93,-2.356 4.815,-2.356 l 0,0 c 3.194,0 5.599,2.356 5.599,5.601 l 0,0 c 0,2.826 -1.464,4.396 -4.446,5.442 l 0,0 c -2.462,0.838 -3.926,1.466 -3.926,3.716 l 0,0 c 0,2.252 1.622,3.769 3.453,3.769 l 0,0 c 1.519,0 2.617,-0.524 3.769,-1.779 l 0,0 0.995,1.046 c -1.257,1.518 -2.774,2.303 -4.606,2.303 l 0,0 c -3.035,0 -5.391,-2.303 -5.391,-5.495 m -190.24,1.464 0,3.403 -1.676,-0.47 0,-18.738 1.676,0.471 0,10.572 c 0,4.239 1.832,6.543 4.5,6.543 l 0,0 0.682,0 0,2.145 c -2.147,-0.052 -3.978,-1.413 -5.182,-3.926 m 234.672,0.158 0,3.245 -1.676,-0.47 0,-18.791 1.676,0.472 0,10.624 c 0,4.031 2.668,6.961 5.967,6.961 l 0,0 c 3.4,0 5.023,-2.092 5.023,-6.333 l 0,0 0,-11.724 1.727,0.472 0,11.2 c 0,5.286 -1.83,8.008 -6.28,8.008 l 0,0 c -2.669,0 -5.129,-1.413 -6.437,-3.664 m -220.805,3.611 -0.47,-1.622 c 1.1,0.105 1.937,0.156 2.617,0.156 l 0,0 c 2.879,0 3.82,-0.994 3.82,-3.454 l 0,0 0,-4.187 c -1.099,1.885 -2.773,2.774 -5.129,2.774 l 0,0 c -3.873,0 -6.751,-2.93 -6.751,-6.751 l 0,0 c 0,-3.821 2.669,-6.699 6.489,-6.699 l 0,0 c 2.197,0 4.292,1.152 5.497,3.14 l 0,0 0,-2.878 1.57,0.575 0,14.184 c 0,3.716 -1.1,4.815 -4.973,4.815 l 0,0 c -0.628,0 -1.518,0 -2.67,-0.053 m -4.187,-13.084 c 0,2.879 2.199,5.129 5.025,5.129 l 0,0 c 2.773,0 5.023,-2.355 5.023,-5.129 l 0,0 c 0,-2.774 -2.197,-5.13 -5.023,-5.13 l 0,0 c -2.826,0 -5.025,2.304 -5.025,5.13 m 195.685,12.456 0,-18.999 1.674,0.472 0,18.998 -1.674,-0.471 z"
         id="path5078"
         inkscape:connector-curvature="0" />
    </clipPath>
    <clipPath
       clipPathUnits="userSpaceOnUse"
       id="clipPath5066">
      <path
         d="m 0,590 619.333,0 0,-590 L 0,0 0,590 Z"
         id="path5068"
         inkscape:connector-curvature="0" />
    </clipPath>
  </defs>
  <sodipodi:namedview
     id="base"
     pagecolor="#ffffff"
     bordercolor="#666666"
     borderopacity="1.0"
     inkscape:pageopacity="0.0"
     inkscape:pageshadow="2"
     inkscape:zoom="1.4"
     inkscape:cx="240.0927"
     inkscape:cy="120.84812"
     inkscape:document-units="in"
     inkscape:current-layer="layer1"
     showgrid="false"
     inkscape:window-width="1254"
     inkscape:window-height="782"
     inkscape:window-x="26"
     inkscape:window-y="18"
     inkscape:window-maximized="1"
     units="in"
     fit-margin-top="0.1"
     fit-margin-left="0.1"
     fit-margin-right="0.1"
     fit-margin-bottom="0.1" />
  <metadata
     id="metadata5453">
    <rdf:RDF>
      <cc:Work
         rdf:about="">
        <dc:format>image/svg+xml</dc:format>
        <dc:type
           rdf:resource="http://purl.org/dc/dcmitype/StillImage" />
        <dc:title></dc:title>
      </cc:Work>
    </rdf:RDF>
  </metadata>
  <g
     inkscape:label="Layer 1"
     inkscape:groupmode="layer"
     id="layer1"
     transform="translate(-129.1494,-724.29684)">
    <g
       style="fill:#ffffff;fill-opacity:1;stroke-width:0.8;stroke-miterlimit:4;stroke-dasharray:none"
       clip-path="url(#clipPath5066)"
       id="g5064"
       transform="matrix(1.25,0,0,-1.25,92.382592,936.03114)">
      <path
         inkscape:connector-curvature="0"
         id="path5070"
         style="fill:#ffffff;fill-opacity:1;fill-rule:nonzero;stroke:none;stroke-width:1.6;stroke-miterlimit:4;stroke-dasharray:none"
         d="m 167.152,73.662 379.851,0 0,-1.465 -379.851,0 0,1.465 z m 376.92,3.559 -1.727,-0.472 0,11.724 c 0,4.24 -1.623,6.333 -5.023,6.333 -3.299,0 -5.967,-2.931 -5.967,-6.961 l 0,-10.624 -1.676,-0.472 0,18.79 1.676,0.471 0,-3.245 c 1.309,2.251 3.767,3.664 6.437,3.664 4.45,0 6.28,-2.722 6.28,-8.008 l 0,-11.2 z m -33.127,12.09 c 0,-2.931 2.511,-5.339 5.756,-5.339 3.298,0 5.757,2.513 5.757,5.339 0,2.826 -2.408,5.39 -5.757,5.39 -3.245,0 -5.756,-2.459 -5.756,-5.39 m 12.56,5.548 c -0.367,-0.053 -0.785,-0.105 -1.203,-0.105 -0.314,0 -0.629,0.052 -0.943,0.052 1.832,-1.151 2.879,-3.245 2.879,-5.442 0,-2.879 -1.78,-5.182 -4.867,-6.177 3.14,-1.152 4.867,-3.611 4.867,-6.594 0,-4.292 -3.35,-7.275 -8.217,-7.275 -2.67,0 -5.076,1.151 -6.594,3.088 l 0.733,1.779 c 1.517,-2.303 3.505,-3.454 6.175,-3.454 3.506,0 6.123,2.564 6.123,5.914 0,3.14 -2.511,5.548 -6.07,5.548 -1.99,0 -3.349,-0.575 -5.078,-1.884 l -0.941,1.099 c 0.994,0.837 2.041,1.465 3.193,1.832 -2.879,0.942 -4.449,2.983 -4.449,5.809 0,4.344 3.191,7.275 8.111,7.275 0.682,0 1.467,-0.105 2.356,-0.105 1.205,0 2.773,0.262 4.71,0.524 l -0.785,-1.884 z m -19.783,-17.638 -1.674,-0.472 0,18.999 1.674,0.471 0,-18.998 z m 0.838,26.901 -1.674,-1.727 -1.676,1.727 1.676,1.675 1.674,-1.675 z m -8.635,-10.834 c -1.152,1.256 -2.25,1.78 -3.769,1.78 -1.83,0 -3.453,-1.518 -3.453,-3.769 0,-2.25 1.464,-2.878 3.925,-3.716 2.983,-1.047 4.448,-2.616 4.448,-5.442 0,-3.245 -2.407,-5.601 -5.6,-5.601 -1.885,0 -3.664,0.838 -4.814,2.356 l 0.941,1.256 c 1.1,-1.413 2.408,-2.146 3.82,-2.146 2.252,0 3.926,1.57 3.926,3.978 0,2.46 -1.465,3.297 -4.029,4.239 -2.932,1.047 -4.397,2.198 -4.397,4.92 0,3.192 2.356,5.495 5.391,5.495 1.832,0 3.35,-0.785 4.605,-2.303 l -0.994,-1.047 z m -18.892,1.728 c -4.711,0 -8.323,-3.821 -8.323,-8.27 0,-0.523 0,-1.151 0.157,-1.936 l 13.347,8.059 c -1.257,1.257 -2.826,2.147 -5.181,2.147 m -7.59,-11.724 c 1.517,-3.298 4.187,-5.077 7.59,-5.077 2.093,0 4.029,0.681 5.966,1.989 l 0,-1.832 c -1.937,-1.255 -3.873,-1.832 -5.966,-1.832 -5.496,0 -9.946,4.24 -9.946,10.049 0,5.81 4.45,10.102 9.946,10.102 3.244,0 5.443,-1.257 7.902,-4.031 l -15.492,-9.368 z m -25.278,3.297 c 0,-4.605 3.612,-8.374 8.217,-8.374 4.606,0 8.164,3.716 8.164,8.374 0,4.658 -3.506,8.374 -8.164,8.374 -4.658,0 -8.217,-3.768 -8.217,-8.374 m 18.161,-9.106 -1.727,-0.524 0,4.449 c -1.937,-3.193 -4.867,-4.92 -8.217,-4.92 -5.652,0 -9.998,4.553 -9.998,10.101 0,5.495 4.346,10.102 9.998,10.102 3.662,0 6.75,-1.885 8.217,-4.973 l 0,22.924 1.727,0.523 0,-37.682 z m -45.795,21.772 c 0,2.722 -1.83,4.763 -4.5,4.763 -2.67,0 -4.867,-2.094 -4.867,-5.025 0,-2.302 1.308,-4.187 3.767,-6.647 3.77,2.042 5.6,4.188 5.6,6.909 m -12.09,-16.12 c 0,-3.141 2.146,-5.339 5.025,-5.339 2.774,0 4.973,1.989 7.379,5.863 l -6.646,6.856 c -3.873,-1.989 -5.758,-4.345 -5.758,-7.38 m 13.295,2.041 c 1.988,3.141 4.082,6.595 6.385,10.468 l 1.255,-0.838 c -2.093,-3.559 -4.238,-7.117 -6.437,-10.729 l 5.861,-6.071 -1.15,-1.257 -5.705,5.758 c -2.565,-4.135 -5.496,-6.281 -8.531,-6.281 -3.926,0 -6.752,3.036 -6.752,6.909 0,3.401 2.146,6.019 6.595,8.426 -2.513,2.617 -3.822,4.658 -3.822,7.484 0,3.455 2.879,6.543 6.752,6.543 3.246,0 6.123,-2.565 6.123,-6.281 0,-3.192 -2.145,-5.6 -6.541,-7.955 l 5.967,-6.176 z m -41.137,-4.396 7.588,15.387 1.467,-0.733 -13.557,-27.058 -1.517,0.733 5.078,9.944 -8.584,16.434 1.57,0.785 7.955,-15.492 z m -25.906,11.985 c 1.308,2.251 3.767,3.664 6.437,3.664 4.45,0 6.28,-2.722 6.28,-8.008 l 0,-11.2 -1.727,-0.472 0,11.724 c 0,4.24 -1.623,6.333 -5.023,6.333 -3.299,0 -5.967,-2.931 -5.967,-6.961 l 0,-10.624 -1.676,-0.472 0,37.893 1.676,0.523 0,-22.4 z m -24.598,-6.123 c 0,-4.658 3.559,-8.427 8.217,-8.427 4.658,0 8.217,3.82 8.217,8.427 0,4.605 -3.612,8.374 -8.217,8.374 -4.553,0 -8.217,-3.664 -8.217,-8.374 m -0.053,-17.533 -1.673,-0.471 0,26.901 1.673,0.471 0,-4.449 c 1.78,3.298 4.868,5.13 8.27,5.13 5.652,0 9.996,-4.607 9.996,-10.102 0,-5.495 -4.344,-10.049 -9.996,-10.049 -3.664,0 -6.803,1.832 -8.27,4.868 l 0,-12.299 z m -19.679,14.183 c 0,-2.826 2.199,-5.13 5.025,-5.13 2.826,0 5.024,2.356 5.024,5.13 0,2.774 -2.25,5.129 -5.024,5.129 -2.826,0 -5.025,-2.251 -5.025,-5.129 m 11.83,-5.862 -1.57,-0.575 0,2.878 c -1.206,-1.989 -3.299,-3.14 -5.497,-3.14 -3.82,0 -6.49,2.878 -6.49,6.699 0,3.821 2.879,6.751 6.752,6.751 2.356,0 4.029,-0.889 5.129,-2.773 l 0,4.186 c 0,2.46 -0.941,3.454 -3.82,3.454 -0.68,0 -1.518,-0.051 -2.617,-0.156 l 0.47,1.622 c 1.153,0.053 2.041,0.053 2.67,0.053 3.873,0 4.973,-1.1 4.973,-4.815 l 0,-14.184 z m -16.328,16.958 -0.682,0 c -2.668,0 -4.5,-2.304 -4.5,-6.543 l 0,-10.572 -1.676,-0.471 0,18.737 1.676,0.471 0,-3.402 c 1.203,2.512 3.035,3.873 5.182,3.926 l 0,-2.146 z m -25.594,-5.077 c 0,-2.931 2.512,-5.339 5.758,-5.339 3.297,0 5.758,2.513 5.758,5.339 0,2.826 -2.409,5.39 -5.758,5.39 -3.246,0 -5.758,-2.459 -5.758,-5.39 m 12.561,5.548 c -0.366,-0.053 -0.784,-0.105 -1.204,-0.105 -0.314,0 -0.627,0.052 -0.941,0.052 1.832,-1.151 2.879,-3.245 2.879,-5.442 0,-2.879 -1.779,-5.182 -4.867,-6.177 3.138,-1.152 4.867,-3.611 4.867,-6.594 0,-4.292 -3.35,-7.275 -8.217,-7.275 -2.67,0 -5.078,1.151 -6.596,3.088 l 0.733,1.779 c 1.517,-2.303 3.508,-3.454 6.176,-3.454 3.507,0 6.125,2.564 6.125,5.914 0,3.14 -2.514,5.548 -6.073,5.548 -1.988,0 -3.349,-0.575 -5.076,-1.884 l -0.943,1.099 c 0.996,0.837 2.043,1.465 3.193,1.832 -2.879,0.942 -4.449,2.983 -4.449,5.809 0,4.344 3.193,7.275 8.113,7.275 0.68,0 1.465,-0.105 2.356,-0.105 1.203,0 2.773,0.262 4.709,0.524 l -0.785,-1.884 z m -36.215,-8.217 c 0,-4.658 3.506,-8.427 8.164,-8.427 4.658,0 8.217,3.82 8.217,8.427 0,4.605 -3.612,8.374 -8.217,8.374 -4.553,0 -8.164,-3.664 -8.164,-8.374 m 18.213,-0.053 c 0,-5.495 -4.397,-10.049 -10.049,-10.049 -5.6,0 -9.996,4.45 -9.996,10.049 0,5.601 4.396,10.102 9.996,10.102 5.652,0 10.049,-4.554 10.049,-10.102 m -29.204,9.421 5.653,0 0,-1.622 -5.653,0 0,-10.782 c 0,-3.612 0.577,-5.129 3.35,-5.129 0.68,0 1.412,0.104 2.197,0.262 l -0.261,-1.622 c -0.627,-0.158 -1.309,-0.315 -1.989,-0.315 -4.187,0 -5.025,2.251 -5.025,6.961 l 0,10.625 -1.883,0 0.419,1.622 1.464,0 0,5.861 1.728,0.472 0,-6.333 z m -25.958,-9.368 c 0,-4.658 3.507,-8.427 8.165,-8.427 4.658,0 8.217,3.82 8.217,8.427 0,4.605 -3.612,8.374 -8.217,8.374 -4.554,0 -8.165,-3.664 -8.165,-8.374 m 18.214,-0.053 c 0,-5.495 -4.397,-10.049 -10.049,-10.049 -5.601,0 -9.997,4.45 -9.997,10.049 0,5.601 4.396,10.102 9.997,10.102 5.652,0 10.049,-4.554 10.049,-10.102 m -37.317,6.176 c 1.309,2.251 3.769,3.664 6.438,3.664 4.449,0 6.28,-2.722 6.28,-8.008 l 0,-11.2 -1.726,-0.472 0,11.724 c 0,4.24 -1.623,6.333 -5.025,6.333 -3.298,0 -5.967,-2.931 -5.967,-6.961 l 0,-10.624 -1.674,-0.472 0,37.893 1.674,0.523 0,-22.4 z m -24.597,-6.123 c 0,-4.658 3.558,-8.427 8.217,-8.427 4.658,0 8.216,3.82 8.216,8.427 0,4.605 -3.611,8.374 -8.216,8.374 -4.554,0 -8.217,-3.664 -8.217,-8.374 m -0.053,-17.533 -1.675,-0.471 0,26.901 1.675,0.471 0,-4.449 c 1.779,3.298 4.867,5.13 8.27,5.13 5.652,0 9.996,-4.607 9.996,-10.102 0,-5.495 -4.344,-10.049 -9.996,-10.049 -3.665,0 -6.804,1.832 -8.27,4.868 l 0,-12.299 z" />
    </g>
    <g
       transform="matrix(1.25,0,0,-1.25,92.382592,936.03114)"
       id="g5072">
      <g
         id="g5074"
         clip-path="url(#clipPath5076)">
        <g
           id="g5080"
           transform="translate(171.6055,124.1967)">
          <path
             d="M 0,0 C -0.029,0.737 0.929,0.737 0.901,0 L 0,0 Z m 84.613,8.104 c -1.825,1.275 -3.502,2.79 -5.094,4.384 -1.404,-0.379 -2.908,-0.495 -4.432,-0.387 -1.158,-0.429 -2.496,-0.822 -4.156,-0.979 -0.865,-0.083 -1.703,-0.624 -2.553,-0.751 -0.822,-0.121 -1.72,0.081 -2.558,0 -1.062,-0.106 -2.104,-0.635 -3.155,-0.754 -0.948,-0.101 -1.866,0.116 -2.704,0 C 59.319,9.534 58.746,9.104 58.157,9.016 56.547,8.775 55.807,8.92 54.549,8.266 53.333,7.631 52.081,6.185 51.244,6.162 50.446,6.141 50.132,6.924 49.438,6.914 48.087,6.895 47.77,5.09 46.585,5.561 46.041,6.74 47.855,6.772 48.24,7.514 48.79,7.829 49.335,8.147 49.886,8.466 49.77,8.427 49.668,8.374 49.553,8.339 45.055,6.904 40.266,5.921 35.401,5.291 34.948,5.026 34.477,4.766 33.961,4.509 32.049,3.557 29.036,4.025 25.694,3.756 25.828,3.941 25.993,4.09 26.136,4.27 22.093,3.238 17.983,2.788 13.813,2.641 12.663,2.453 11.701,1.771 10.518,1.505 7.262,0.772 2.767,1.764 -0.904,1.355 -1.466,0.792 0.07,0.056 -0.904,-0.451 -1.556,-1.028 -1.167,0.4 -1.505,0.6 -2.259,0.501 -2.37,-0.236 -2.857,-0.601 -3.907,-0.474 -4.791,-0.744 -5.411,0 c -0.707,0.106 -0.597,-0.608 -1.052,-0.751 -0.562,-0.059 -0.394,0.61 -1.054,0.452 -1.819,-0.281 -5.021,-0.766 -7.06,-1.053 -2.841,-0.397 -5.423,1.066 -8.12,0.601 -0.592,-0.101 -1.054,-0.62 -1.651,-0.75 -0.519,-0.115 -1.113,0.077 -1.654,0 -0.536,-0.078 -0.978,-0.513 -1.503,-0.604 -0.917,-0.158 -1.901,0.074 -2.854,0 -1.583,-0.118 -3.153,-0.623 -4.81,-0.752 -4.123,-0.317 -8.447,0.227 -12.774,0 -1.049,1.156 -2.325,2.085 -3.755,2.857 -3.081,-0.694 -7.496,-1.715 -10.672,-0.902 -0.018,0.576 -0.025,1.216 -0.034,1.827 -0.27,-0.212 -0.561,-0.416 -0.79,-0.642 -1.452,-1.419 -1.036,-1.262 -1.253,-3.826 0.145,0.023 0.265,0.079 0.423,0.088 -0.259,-4.269 3.094,-4.925 3.76,-8.267 3.77,-1.441 9.469,-0.949 14.124,-1.502 0.897,1.698 2.221,1.652 2.857,0 1.807,-0.383 2.82,0.443 3.907,0.6 0.475,0.068 1.055,-0.113 1.503,0 1.075,0.273 1.858,1.308 2.854,1.502 2.582,0.505 5.596,-0.288 8.418,0 0.86,0.09 1.731,0.511 2.554,0.602 1.17,0.129 2.413,-0.005 3.606,0.152 3.363,0.447 7.885,0.643 11.872,0.601 0.674,-0.007 2.072,0.408 2.405,-0.601 -0.319,-1.155 -1.904,-1.183 -2.104,-2.406 -0.094,-0.571 0.582,-1.481 0.751,-2.706 0.08,-0.578 -0.103,-1.101 0,-1.502 0.119,-0.453 0.513,-0.783 0.601,-1.201 0.282,-1.323 0.626,-3.178 0.6,-4.209 -0.027,-1.185 -0.693,-2.119 -0.748,-3.006 -0.097,-1.514 0.637,-2.561 0.9,-4.355 0.078,-0.524 -0.118,-1.213 0,-1.805 0.122,-0.611 0.641,-1.203 0.753,-1.807 0.301,-1.666 0.273,-3.377 0.597,-5.107 0.129,-0.666 0.639,-1.265 0.752,-1.953 0.107,-0.63 -0.097,-1.348 0,-1.953 0.093,-0.55 0.488,-1.112 0.603,-1.656 0.172,-0.811 0.016,-1.727 0.151,-2.553 0.1,-0.606 0.518,-1.186 0.601,-1.803 0.106,-0.768 -0.102,-1.623 0,-2.405 0.259,-1.982 1.153,-4.261 0.901,-6.761 -0.25,-0.44 -0.848,-0.563 -1.502,-0.904 -0.023,-0.012 -0.047,-0.022 -0.067,-0.036 0.196,-0.603 0.357,-1.224 0.485,-1.855 1.247,-2.016 2.367,-4.119 3.28,-6.344 2.337,0.229 4.913,0.278 7.029,0.078 2.482,1.867 4.47,4.051 5.797,6.561 -0.13,0.508 -0.225,1.021 -0.302,1.537 -0.562,-0.24 -0.802,-1.039 -1.646,-0.539 1.039,2.084 0.874,6.305 0.154,8.712 -1.419,0.689 -3.484,0.728 -4.361,1.956 l 0,7.664 c -0.689,0.711 -1.418,1.389 -2.104,2.104 0.344,0.994 -0.568,1.878 -0.751,2.856 -0.11,0.585 0.098,1.325 0,1.955 -0.106,0.67 -0.525,1.218 -0.602,1.804 -0.14,1.059 0.075,2.371 -0.149,3.603 -0.137,0.748 -0.521,1.346 -0.603,2.105 -0.134,1.261 0.172,2.767 0,4.209 -0.082,0.685 -0.481,1.476 -0.601,2.253 -0.222,1.47 0.048,3.008 -0.149,4.058 -0.302,1.61 -0.859,2.293 -0.6,3.307 0.152,0.603 1.061,1.262 1.652,1.952 1.13,1.329 1.855,2.216 3.157,2.857 14.453,0.07 26.589,2.462 40.123,3.454 0.611,0.6 -0.91,0.605 -0.298,1.205 2.677,0.131 4.181,0.265 5.709,1.05 1.315,-0.662 2.191,0.851 3.005,-0.151 2.102,0.855 4.844,1.069 6.165,2.705 2.377,-0.462 4.411,0.523 6.609,0.755 0.664,0.069 1.389,-0.121 2.104,0 0.486,0.079 0.984,0.484 1.504,0.601 0.648,0.14 1.338,0.001 1.953,0.148 1.5,0.359 3.545,1.074 4.809,1.354 0.431,0.095 0.919,-0.083 1.353,0 0.461,0.087 0.891,0.487 1.352,0.599 1.082,0.267 2.213,0.57 3.156,0.75 0.375,0.075 0.732,0.123 1.094,0.178 -0.026,0.322 -0.041,0.643 -0.077,0.964 -0.064,0.656 -0.15,1.399 -0.259,2.155"
             style="fill:#231f20;fill-opacity:1;fill-rule:evenodd;stroke:none"
             id="path5082"
             inkscape:connector-curvature="0" />
        </g>
      </g>
    </g>
    <g
       id="g5092"
       transform="matrix(1.25,0,0,-1.25,189.73422,858.05514)"
       style="fill:#ff0000;fill-opacity:1">
      <path
         d="M 0,0 0,-0.363 C 1.204,-0.488 2.307,-1.971 3.488,-1.326 2.778,-0.508 1.473,0.34 0,0 m -4.329,1.684 c 0.414,-0.844 1.198,-2.327 3.007,-2.166 0.278,0.322 0.419,0.781 0.361,1.439 -0.633,0.668 -2.255,0.936 -3.368,0.727 M -17.07,12.137 c -1.346,-1.074 -0.19,-3.742 1.44,-3.725 0.663,1.477 -0.068,3.502 -1.44,3.725 M 6.012,-2.646 C 6.317,-2.74 6.74,-2.65 7.094,-2.768 c 0.27,-0.091 0.496,-0.425 0.72,-0.482 0.336,-0.082 0.757,0.105 1.082,0 0.321,-0.1 0.511,-0.479 0.844,-0.602 0.24,-0.086 0.626,0.088 0.961,0 0.611,-0.156 0.632,-0.494 1.082,-0.48 0.486,0.016 0.777,0.387 1.202,0.48 1.544,-0.14 2.307,0.481 3.488,0.602 2.857,0.293 5.847,-0.232 8.655,0 2.358,0.195 5.207,0.775 6.735,1.686 0.347,0.205 0.638,0.431 0.961,0.599 0.569,0.297 1.124,0.229 1.683,0.483 0.324,0.142 0.499,0.484 0.839,0.601 0.278,0.092 0.643,-0.084 0.964,0 0.305,0.074 0.541,0.408 0.841,0.479 0.317,0.074 0.737,-0.061 1.082,0 0.508,0.089 0.957,0.527 1.445,0.603 0.448,0.065 0.899,-0.086 1.322,0 0.903,0.17 1.816,0.965 2.883,0.602 5.954,2.9 9.685,8.025 15.988,10.578 0.887,0.717 1.723,1.48 2.168,2.644 5.274,2.338 7.828,7.399 12.02,10.821 0.036,2.287 1.237,3.412 2.166,4.809 -0.02,1.89 0.668,4.241 1.082,5.652 0.108,0.364 0.019,0.722 0.119,1.08 0.086,0.299 0.419,0.515 0.482,0.843 0.188,0.972 0.392,1.1 0.6,1.685 0.086,0.241 -0.076,0.653 0,0.958 0.075,0.293 0.41,0.592 0.482,0.842 0.227,0.804 0.509,1.584 0.6,2.043 0.083,0.408 -0.06,0.913 0,1.445 0.106,0.875 0.574,1.651 0.482,2.402 -0.098,0.84 -0.812,2.096 -1.082,3.008 -0.255,0.862 -0.185,1.825 -0.482,2.764 -0.099,0.329 -0.482,0.592 -0.6,0.964 -0.071,0.225 0.069,0.682 0,0.96 -0.181,0.722 -0.844,1.705 -1.084,2.646 -0.247,0.978 -0.354,1.146 -0.599,1.804 -0.079,0.209 0.07,0.504 0,0.719 -0.228,0.708 -0.768,1.39 -1.085,2.166 -0.077,0.197 0.089,0.5 0,0.722 -0.061,0.156 -0.385,0.268 -0.477,0.48 -0.608,1.322 -0.971,2.413 -1.568,3.485 -0.591,1.073 -0.895,1.499 -1.436,2.287 -1.371,1.992 -4.302,5.209 -5.291,5.527 -0.364,0.117 -0.673,0.252 -1.204,0 0.443,-4.321 3.461,-6.074 3.848,-10.46 0.7,-0.481 0.445,-1.243 0.601,-2.163 0.071,-0.431 0.406,-0.787 0.478,-1.201 0.083,-0.463 -0.064,-0.939 0,-1.443 0.092,-0.675 0.518,-1.315 0.603,-2.046 0.527,-4.42 0.051,-10.392 -0.603,-14.185 -0.293,-0.502 -0.615,-0.986 -0.478,-1.924 -0.232,-0.291 -0.333,-0.709 -0.601,-0.961 l 0,-0.839 C 68.514,39.123 68.14,38.216 67.93,37.148 67.71,36.969 67.629,36.646 67.327,36.545 67.563,35.588 66.675,35.756 66.848,34.861 63.04,28.508 58.946,22.076 53.383,17.671 48.317,13.666 42.948,10.07 37.029,6.848 34.523,5.75 32.126,4.539 29.698,3.363 29.043,3.354 28.045,2.705 27.294,2.4 26.117,1.977 24.945,1.455 23.326,1.803 c -1.242,-0.67 -2.332,-1.93 -3.969,-2.285 -0.437,-0.096 -0.98,0.056 -1.444,0 -0.56,-0.073 -1.08,-0.405 -1.683,-0.483 -2.101,-0.283 -3.846,-0.176 -5.771,-0.599 -0.481,-0.122 -0.56,-0.643 -1.202,-0.602 -1.465,0.945 -4.146,1.754 -5.528,0.238 0.956,-0.174 1.624,-0.515 2.283,-0.718 m 28.014,82.475 c -0.265,-1.183 -1.553,-4.134 -3.006,-4.571 -1.461,-0.437 -3.872,0.19 -6.012,-0.121 -1.657,-0.235 -3.755,-1 -5.29,-1.081 C 9.329,70.74 2.312,64.048 -4.329,56.986 c 0.125,-3.812 -3.208,-4.165 -3.484,-7.574 -2.303,-1.017 -3.611,-2.732 -4.448,-5.291 -0.122,-0.371 -0.42,-0.674 -0.481,-0.961 -0.548,-2.603 -0.05,-5.58 -0.603,-8.178 -0.178,-0.827 -0.668,-1.209 -0.721,-1.802 -0.137,-1.517 0.841,-2.125 0.962,-3.608 0.078,-0.992 -0.306,-2.511 -0.121,-3.486 2.737,-4.999 5.809,-9.664 9.499,-13.705 C -1.93,11.533 0.144,10.96 1.923,10.098 3.234,9.881 4.186,9.748 5.651,9.494 6.086,9.42 6.446,9.081 6.853,9.016 c 0.605,-0.096 1.313,0.037 1.923,0 2.403,-0.153 4.895,-0.613 7.214,0 1.941,1.222 4.566,1.763 6.735,2.763 1.991,0.211 3.379,1.027 5.53,1.082 1.96,1.36 4.01,2.417 6.129,3.366 0.944,0.421 1.963,0.642 2.887,1.084 0.987,0.468 2.006,1.148 3.007,1.68 1.011,0.543 2.143,1.045 3.005,1.685 0.998,0.746 1.632,2.019 2.646,2.765 0.37,0.274 0.828,0.357 1.202,0.602 0.959,0.629 1.808,1.618 3.124,1.683 2.992,3.817 6.193,7.432 9.139,11.299 -0.268,0.657 -0.122,1.604 0.121,2.287 0.599,1.688 2.473,3.091 2.884,4.686 0.529,2.07 0.243,3.918 0,6.014 -0.093,0.793 0.069,1.625 -0.119,2.404 -0.105,0.425 -0.414,0.758 -0.484,1.203 -0.167,1.086 0.123,2.301 0,3.486 -2.665,6.951 -6.675,12.561 -11.901,16.951 -2.607,1.279 -4.636,3.141 -7.813,3.846 -0.214,0.231 -0.512,0.377 -0.72,0.601 -2.361,0.488 -5.068,1.269 -7.216,1.564 -0.094,-0.027 -0.14,-0.101 -0.12,-0.238 m -47.852,-0.6 c -3.106,-1.622 -5.32,-4.14 -7.694,-6.493 -0.897,-1.55 -1.86,-3.03 -2.884,-4.45 l 0,-0.719 c -0.18,-0.147 -0.541,-0.105 -0.484,-0.485 -0.69,-1.402 -1.333,-2.804 -2.042,-4.085 -0.666,-1.2 -2.36,-3.078 -2.526,-3.969 -0.13,-0.707 0.199,-1.328 0.119,-1.923 -0.064,-0.49 -0.453,-0.777 -0.6,-1.321 -0.06,-0.229 0.092,-0.583 0,-0.843 -0.06,-0.173 -0.374,-0.26 -0.481,-0.482 -0.134,-0.277 -0.009,-0.715 -0.118,-0.961 -0.693,-1.508 -1.786,-2.85 -2.166,-4.568 -0.392,-1.784 -0.161,-3.881 0,-6.01 0.047,-0.627 -0.099,-1.309 0,-1.927 0.074,-0.454 0.407,-0.837 0.482,-1.321 0.171,-1.086 0.277,-2.402 0.48,-3.725 0.182,-1.197 0.095,-2.269 -0.12,-3.25 1.809,-1.729 2.843,-3.62 3.009,-6.851 2.353,-2.854 5.1,-5.318 6.127,-9.5 1.592,-0.87 2.503,-3.639 5.051,-2.766 -0.199,0.964 -1.3,1.029 -1.683,1.808 0.159,3.526 -1.824,4.905 -3.368,6.729 -0.628,2.095 -0.682,4.228 0,5.893 0.167,0.401 0.541,0.537 0.603,0.963 0.095,0.654 -0.459,1.509 -0.603,2.761 -0.088,0.784 0.119,1.649 0,2.167 -0.11,0.492 -0.527,0.767 -0.599,1.203 -0.062,0.361 0.116,0.724 0.12,1.084 0.015,2.908 -0.582,6.142 0.479,8.775 1.241,1.525 2.238,3.296 2.767,5.53 0.543,0.737 0.95,1.616 1.081,2.765 0.186,0.297 0.349,0.616 0.599,0.84 0.088,1.48 0.872,2.26 1.084,3.607 3.811,3.322 6.892,7.379 9.62,11.782 5.914,3.225 10.474,7.803 15.631,11.784 0.367,0.089 0.231,-0.33 0.598,-0.241 0.494,1.003 1.583,0.973 2.284,1.923 0.311,-0.01 0.126,-0.514 0.6,-0.361 0.241,0.164 -0.034,0.841 0.363,0.843 0.987,0.041 1.843,0.99 2.887,1.203 1.179,0.241 2.369,-0.035 3.365,0.6 0.638,0.483 1.378,1.377 1.32,2.163 l -4.567,0 c -0.74,-1.206 -1.565,-0.181 -2.404,0 -2.047,0.44 -5.087,0.393 -7.456,0 C 3.527,87.15 2.173,86.204 0.842,86.319 0.578,86.105 0.35,85.85 0,85.72 l -0.841,0 c -0.326,-0.078 -0.301,-0.5 -0.721,-0.482 -0.833,0.057 -1.107,-0.52 -1.562,-0.6 -0.897,-0.165 -1.935,-0.634 -2.406,-0.963 -0.197,-0.14 -0.439,-0.028 -0.601,-0.12 -1.176,-0.672 -2.446,-1.703 -3.728,-2.164 -0.479,-0.171 -1.108,-0.14 -1.563,-0.361 -0.786,-0.382 -1.297,-1.405 -2.286,-1.443 -0.266,0.2 0.026,0.649 -0.478,0.36 -0.43,-0.443 0.557,-0.151 0.36,-0.718 m 37.392,12.98 c 1.275,-2.691 -2.526,-3.068 -2.887,-5.288 5.411,1.444 13.121,1.629 17.311,4.69 -3.644,1.425 -10.222,1.884 -14.424,0.598 M 7.214,-11.664 c -0.642,0.16 -0.319,-0.641 -0.961,-0.481 -0.689,0.153 -1.016,0.67 -1.566,0.959 -0.721,-0.947 -2.343,-0.111 -3.845,0.122 -0.62,0.099 -1.29,-0.094 -1.683,0 -0.576,0.142 -0.749,0.675 -1.322,1.084 -1.121,0.787 -3.527,1.617 -5.172,2.404 -1.31,0.627 -2.494,1.455 -4.447,1.562 -0.232,0.575 -0.793,0.442 -1.202,0.723 -0.992,0.668 -1.664,1.83 -2.646,2.523 -0.861,0.608 -1.796,1 -2.647,1.563 -2.787,1.846 -5.759,4.346 -7.334,7.695 -5.32,4.656 -9.138,10.817 -11.537,18.393 -0.125,0.44 -0.407,0.717 -0.601,1.084 0.134,0.815 -0.259,1.101 -0.481,1.56 -0.071,0.436 -0.035,0.61 -0.12,1.205 -0.481,0.641 -1.075,1.171 -1.683,1.683 -0.61,6.818 -2.15,15.266 -0.485,22.122 1.255,1.391 1.941,3.351 2.769,5.168 l 0,1.083 c 0.258,0.221 0.314,0.645 0.601,0.842 l 0,1.202 c 0.424,0.416 0.529,1.153 0.599,1.925 1.129,2.838 2.877,5.059 4.929,6.972 0.46,1.466 1.535,2.31 1.683,4.087 0.758,0.809 1.229,1.9 2.164,2.524 -0.158,1.206 0.702,1.992 0.6,3.489 3.832,6.83 8.959,12.364 17.196,14.785 2.422,0.216 5.494,0.897 8.054,1.085 1.715,0.122 3.435,-0.117 5.171,0 1.348,0.09 2.655,0.503 3.966,0.601 0.781,0.055 1.537,-0.112 2.285,0 0.41,0.059 0.765,0.373 1.202,0.479 0.569,0.138 1.246,0.004 1.803,0.122 0.393,0.082 0.719,0.412 1.082,0.481 0.362,0.069 0.835,-0.09 1.204,0 0.432,0.104 0.768,0.485 1.2,0.6 1.063,0.282 2.216,0.245 3.249,0.481 0.479,0.11 0.862,0.509 1.317,0.6 0.511,0.104 1.05,-0.064 1.568,0 0.495,0.061 0.957,0.386 1.442,0.484 3.448,0.68 6.545,-0.153 10.098,-0.484 0.662,-0.059 1.366,0.083 2.045,0 0.7,-0.084 1.342,-0.507 2.041,-0.6 0.783,-0.103 1.52,0.119 2.286,0 0.471,-0.074 0.936,-0.406 1.442,-0.481 1.306,-0.19 2.371,-0.161 3.367,-0.6 0.449,-0.632 1.115,-1.052 1.563,-1.683 4.74,-1.593 8.993,-3.67 11.78,-7.215 0.61,0.05 0.839,-0.285 1.206,-0.482 l 1.322,0 c 5.317,-3.378 9.348,-8.04 15.269,-10.819 4.082,-5.094 5.716,-12.638 9.136,-18.395 0.283,-1.759 -0.372,-3.599 0,-5.411 0.163,-0.783 0.938,-1.479 1.083,-1.922 0.561,-1.708 0.376,-4.856 0,-6.851 -0.086,-0.468 -0.404,-0.743 -0.48,-1.206 -0.399,-2.406 0.365,-4.697 0,-6.732 -0.291,-1.596 -1.983,-2.812 -2.286,-4.45 -0.259,-1.396 -0.022,-2.845 -0.478,-3.966 -0.116,-0.277 -0.476,-0.449 -0.603,-0.723 -0.086,-0.183 0.068,-0.54 0,-0.72 -0.315,-0.84 -1.114,-1.916 -1.684,-2.883 C 77.956,19.293 74.4,15.278 70.452,11.899 69.647,11.209 68.73,10.641 67.93,9.975 67.108,9.295 66.34,8.53 65.527,7.932 65.162,7.666 64.585,7.602 64.205,7.33 63.821,7.061 63.601,6.615 63.241,6.371 62.48,5.842 61.571,5.514 60.837,5.045 54.673,-1.455 46.07,-5.516 36.673,-8.781 c -1.028,-0.815 -2.822,-0.865 -3.849,-1.682 -1.208,-0.037 -2.318,0.203 -3.487,0 -0.451,-0.08 -0.862,-0.408 -1.325,-0.48 -0.475,-0.075 -1.055,0.082 -1.562,0 -0.633,-0.106 -1.18,-0.553 -1.802,-0.721 -0.752,-0.205 -1.543,-0.1 -2.286,-0.242 -1.02,-0.198 -2.011,-0.83 -3.123,-0.961 -1.502,-0.18 -3.631,-0.129 -5.533,0 -2.536,0.168 -5.099,-0.059 -6.492,1.203"
         style="fill:#ff0000;fill-opacity:1;fill-rule:evenodd;stroke:none"
         id="path5094"
         inkscape:connector-curvature="0" />
    </g>
    <g
       id="g5096"
       transform="matrix(1.25,0,0,-1.25,412.65534,770.65577)"
       style="fill:#ffffff;fill-opacity:1">
      <path
         d="M 0,0 C -1.824,1.276 -3.502,2.79 -5.094,4.384 -6.498,4.006 -8.002,3.89 -9.525,3.997 c -1.158,-0.428 -2.496,-0.822 -4.157,-0.979 -0.865,-0.082 -1.703,-0.623 -2.552,-0.751 -0.823,-0.121 -1.72,0.081 -2.558,0 -1.063,-0.106 -2.105,-0.635 -3.156,-0.753 -0.948,-0.102 -1.866,0.115 -2.704,0 -0.641,-0.083 -1.215,-0.514 -1.803,-0.602 -1.611,-0.24 -2.351,-0.095 -3.609,-0.749 -1.216,-0.636 -2.468,-2.082 -3.305,-2.105 -0.797,-0.021 -1.112,0.763 -1.805,0.752 -1.352,-0.018 -1.668,-1.824 -2.854,-1.352 -0.544,1.178 1.271,1.211 1.656,1.952 0.549,0.315 1.094,0.633 1.645,0.952 -0.116,-0.039 -0.218,-0.091 -0.333,-0.127 -4.498,-1.435 -9.287,-2.417 -14.151,-3.048 -0.453,-0.264 -0.925,-0.525 -1.441,-0.782 -1.912,-0.952 -4.925,-0.483 -8.266,-0.753 0.133,0.186 0.298,0.334 0.441,0.514 -4.043,-1.031 -8.152,-1.481 -12.322,-1.628 -1.151,-0.188 -2.113,-0.871 -3.296,-1.137 -3.256,-0.732 -7.751,0.26 -11.422,-0.15 -0.562,-0.562 0.975,-1.299 0,-1.805 -0.651,-0.578 -0.263,0.851 -0.601,1.051 -0.753,-0.1 -0.865,-0.836 -1.351,-1.201 -1.051,0.126 -1.935,-0.144 -2.555,0.6 -0.707,0.107 -0.597,-0.608 -1.052,-0.75 -0.561,-0.059 -0.394,0.609 -1.053,0.452 -1.82,-0.282 -5.022,-0.766 -7.061,-1.053 -2.841,-0.398 -5.423,1.066 -8.12,0.601 -0.592,-0.102 -1.054,-0.621 -1.65,-0.751 -0.52,-0.114 -1.114,0.078 -1.655,0 -0.536,-0.077 -0.977,-0.512 -1.503,-0.604 -0.917,-0.157 -1.901,0.074 -2.854,0 -1.583,-0.117 -3.152,-0.622 -4.81,-0.751 -4.122,-0.317 -8.447,0.227 -12.774,0 -1.049,1.156 -2.324,2.084 -3.755,2.856 -3.081,-0.694 -7.496,-1.714 -10.671,-0.901 -0.019,0.575 -0.026,1.216 -0.035,1.826 -0.27,-0.211 -0.561,-0.416 -0.79,-0.642 -1.452,-1.419 -1.036,-1.261 -1.253,-3.825 0.146,0.022 0.265,0.078 0.423,0.087 -0.259,-4.269 3.095,-4.925 3.76,-8.267 3.77,-1.44 9.469,-0.949 14.124,-1.502 0.897,1.699 2.221,1.653 2.857,0 1.807,-0.382 2.82,0.444 3.908,0.6 0.474,0.068 1.055,-0.112 1.503,0 1.074,0.273 1.858,1.309 2.854,1.502 2.582,0.506 5.595,-0.287 8.418,0 0.859,0.091 1.73,0.512 2.553,0.602 1.17,0.129 2.414,-0.004 3.606,0.153 3.363,0.446 7.886,0.642 11.872,0.6 0.675,-0.007 2.072,0.409 2.405,-0.6 -0.319,-1.155 -1.904,-1.184 -2.103,-2.407 -0.095,-0.571 0.582,-1.481 0.751,-2.705 0.08,-0.579 -0.104,-1.102 0,-1.502 0.118,-0.454 0.512,-0.784 0.6,-1.202 0.283,-1.323 0.626,-3.177 0.601,-4.209 -0.027,-1.184 -0.693,-2.119 -0.748,-3.005 -0.098,-1.514 0.637,-2.562 0.899,-4.356 0.078,-0.523 -0.118,-1.213 0,-1.805 0.122,-0.611 0.642,-1.203 0.753,-1.806 0.301,-1.666 0.274,-3.377 0.598,-5.108 0.129,-0.666 0.638,-1.264 0.752,-1.953 0.106,-0.63 -0.098,-1.347 0,-1.953 0.093,-0.55 0.487,-1.111 0.602,-1.655 0.172,-0.812 0.016,-1.728 0.152,-2.554 0.099,-0.605 0.517,-1.185 0.6,-1.803 0.107,-0.767 -0.101,-1.623 0,-2.405 0.259,-1.981 1.154,-4.261 0.902,-6.761 -0.25,-0.439 -0.849,-0.562 -1.502,-0.904 -0.024,-0.012 -0.047,-0.021 -0.068,-0.035 0.197,-0.604 0.358,-1.225 0.486,-1.856 1.247,-2.015 2.367,-4.119 3.279,-6.343 2.337,0.228 4.913,0.277 7.029,0.078 2.483,1.867 4.47,4.051 5.797,6.56 -0.13,0.508 -0.224,1.022 -0.302,1.537 -0.561,-0.24 -0.801,-1.039 -1.645,-0.539 1.038,2.084 0.873,6.305 0.153,8.712 -1.419,0.69 -3.483,0.729 -4.361,1.956 l 0,7.664 c -0.689,0.711 -1.417,1.389 -2.104,2.104 0.344,0.994 -0.568,1.879 -0.751,2.856 -0.11,0.585 0.098,1.326 0,1.955 -0.106,0.67 -0.525,1.218 -0.601,1.804 -0.141,1.06 0.074,2.371 -0.15,3.604 -0.136,0.748 -0.52,1.345 -0.603,2.104 -0.134,1.262 0.173,2.768 0,4.209 -0.081,0.686 -0.481,1.477 -0.601,2.253 -0.221,1.471 0.048,3.008 -0.148,4.059 -0.303,1.609 -0.86,2.293 -0.601,3.306 0.153,0.604 1.061,1.262 1.653,1.952 1.129,1.33 1.854,2.216 3.157,2.857 14.452,0.07 26.589,2.463 40.123,3.454 0.61,0.601 -0.91,0.606 -0.299,1.206 2.678,0.13 4.182,0.265 5.709,1.05 1.315,-0.662 2.191,0.851 3.006,-0.152 2.101,0.855 4.844,1.07 6.164,2.706 2.377,-0.462 4.411,0.523 6.609,0.754 0.665,0.07 1.389,-0.12 2.104,0 0.487,0.079 0.985,0.485 1.504,0.601 0.649,0.141 1.338,0.002 1.953,0.148 1.5,0.36 3.545,1.074 4.809,1.354 0.432,0.095 0.92,-0.083 1.353,0 0.461,0.087 0.891,0.487 1.352,0.599 1.082,0.268 2.213,0.571 3.156,0.75 0.375,0.075 0.733,0.124 1.094,0.179 C 0.311,-2.797 0.295,-2.475 0.26,-2.155 0.195,-1.499 0.109,-0.755 0,0"
         style="fill:#ffffff;fill-opacity:1;fill-rule:evenodd;stroke:none"
         id="path5098"
         inkscape:connector-curvature="0" />
    </g>
    <g
       id="g5100"
       transform="matrix(1.25,0,0,-1.25,306.88947,780.78526)">
      <path
         d="M 0,0 C -0.029,0.737 0.929,0.737 0.901,0 L 0,0 Z"
         style="fill:#231f20;fill-opacity:1;fill-rule:evenodd;stroke:none"
         id="path5102"
         inkscape:connector-curvature="0" />
    </g>
    <g
       transform="matrix(1.25,0,0,-1.25,92.382592,936.03114)"
       id="g5104"
       style="fill:#000000;fill-opacity:1">
      <g
         id="g5106"
         clip-path="url(#clipPath5108)"
         style="fill:#000000;fill-opacity:1">
        <g
           id="g5112"
           transform="translate(171.9677,86.6419)"
           style="fill:#000000;fill-opacity:1">
          <path
             d="m 0,0 c 0,-4.658 3.559,-8.427 8.217,-8.427 4.658,0 8.217,3.821 8.217,8.427 0,4.605 -3.612,8.374 -8.217,8.374 C 3.663,8.374 0,4.71 0,0 m -0.053,-17.533 -1.675,-0.471 0,26.901 1.675,0.471 0,-4.449 c 1.78,3.298 4.867,5.13 8.27,5.13 5.652,0 9.996,-4.607 9.996,-10.102 0,-5.495 -4.344,-10.049 -9.996,-10.049 -3.664,0 -6.804,1.832 -8.27,4.868 l 0,-12.299 z"
             style="fill:#000000;fill-opacity:1;fill-rule:nonzero;stroke:none"
             id="path5114"
             inkscape:connector-curvature="0" />
        </g>
        <g
           id="g5116"
           transform="translate(196.5654,92.765)"
           style="fill:#000000;fill-opacity:1">
          <path
             d="m 0,0 c 1.309,2.251 3.769,3.664 6.437,3.664 4.45,0 6.281,-2.722 6.281,-8.008 l 0,-11.2 -1.727,-0.472 0,11.724 c 0,4.24 -1.623,6.333 -5.024,6.333 C 2.669,2.041 0,-0.89 0,-4.92 l 0,-10.624 -1.675,-0.472 0,37.893 L 0,22.4 0,0 Z"
             style="fill:#000000;fill-opacity:1;fill-rule:nonzero;stroke:none"
             id="path5118"
             inkscape:connector-curvature="0" />
        </g>
        <g
           id="g5120"
           transform="translate(215.6679,86.6419)"
           style="fill:#000000;fill-opacity:1">
          <path
             d="m 0,0 c 0,-4.658 3.507,-8.427 8.165,-8.427 4.658,0 8.217,3.821 8.217,8.427 0,4.605 -3.611,8.374 -8.217,8.374 C 3.611,8.374 0,4.71 0,0 m 18.214,-0.053 c 0,-5.495 -4.397,-10.049 -10.049,-10.049 -5.601,0 -9.997,4.45 -9.997,10.049 0,5.601 4.396,10.102 9.997,10.102 5.652,0 10.049,-4.554 10.049,-10.102"
             style="fill:#000000;fill-opacity:1;fill-rule:nonzero;stroke:none"
             id="path5122"
             inkscape:connector-curvature="0" />
        </g>
        <g
           id="g5124"
           transform="translate(241.6264,96.0101)"
           style="fill:#000000;fill-opacity:1">
          <path
             d="m 0,0 5.652,0 0,-1.622 -5.652,0 0,-10.782 c 0,-3.612 0.576,-5.129 3.35,-5.129 0.679,0 1.412,0.104 2.197,0.262 l -0.262,-1.623 c -0.627,-0.157 -1.308,-0.314 -1.988,-0.314 -4.188,0 -5.026,2.251 -5.026,6.961 l 0,10.625 -1.883,0 0.419,1.622 1.464,0 0,5.861 L 0,6.333 0,0 Z"
             style="fill:#000000;fill-opacity:1;fill-rule:nonzero;stroke:none"
             id="path5126"
             inkscape:connector-curvature="0" />
        </g>
        <g
           id="g5128"
           transform="translate(252.6167,86.6419)"
           style="fill:#000000;fill-opacity:1">
          <path
             d="m 0,0 c 0,-4.658 3.506,-8.427 8.164,-8.427 4.658,0 8.217,3.821 8.217,8.427 0,4.605 -3.611,8.374 -8.217,8.374 C 3.611,8.374 0,4.71 0,0 m 18.213,-0.053 c 0,-5.495 -4.397,-10.049 -10.049,-10.049 -5.6,0 -9.996,4.45 -9.996,10.049 0,5.601 4.396,10.102 9.996,10.102 5.652,0 10.049,-4.554 10.049,-10.102"
             style="fill:#000000;fill-opacity:1;fill-rule:nonzero;stroke:none"
             id="path5130"
             inkscape:connector-curvature="0" />
        </g>
        <g
           id="g5132"
           transform="translate(276.271,89.3109)"
           style="fill:#000000;fill-opacity:1">
          <path
             d="m 0,0 c 0,-2.931 2.512,-5.339 5.758,-5.339 3.297,0 5.758,2.513 5.758,5.339 0,2.826 -2.409,5.391 -5.758,5.391 C 2.512,5.391 0,2.931 0,0 M 12.561,5.548 C 12.195,5.495 11.777,5.443 11.357,5.443 c -0.314,0 -0.627,0.052 -0.941,0.052 1.832,-1.151 2.879,-3.245 2.879,-5.442 0,-2.879 -1.779,-5.182 -4.867,-6.177 3.138,-1.151 4.867,-3.611 4.867,-6.594 0,-4.292 -3.35,-7.275 -8.217,-7.275 -2.67,0 -5.078,1.151 -6.596,3.088 l 0.733,1.779 c 1.517,-2.303 3.508,-3.454 6.176,-3.454 3.507,0 6.125,2.564 6.125,5.914 0,3.141 -2.514,5.548 -6.073,5.548 -1.988,0 -3.349,-0.575 -5.076,-1.884 l -0.943,1.099 c 0.996,0.838 2.043,1.466 3.193,1.832 -2.879,0.942 -4.449,2.983 -4.449,5.809 0,4.344 3.193,7.275 8.113,7.275 0.68,0 1.465,-0.105 2.356,-0.105 1.203,0 2.773,0.262 4.709,0.524 L 12.561,5.548 Z"
             style="fill:#000000;fill-opacity:1;fill-rule:nonzero;stroke:none"
             id="path5134"
             inkscape:connector-curvature="0" />
        </g>
        <g
           id="g5136"
           transform="translate(301.8647,94.388)"
           style="fill:#000000;fill-opacity:1">
          <path
             d="m 0,0 -0.682,0 c -2.668,0 -4.5,-2.304 -4.5,-6.543 l 0,-10.572 -1.675,-0.471 0,18.737 1.675,0.471 0,-3.402 C -3.979,0.732 -2.146,2.093 0,2.146 L 0,0 Z"
             style="fill:#000000;fill-opacity:1;fill-rule:nonzero;stroke:none"
             id="path5138"
             inkscape:connector-curvature="0" />
        </g>
        <g
           id="g5140"
           transform="translate(306.3628,83.2923)"
           style="fill:#000000;fill-opacity:1">
          <path
             d="m 0,0 c 0,-2.826 2.199,-5.13 5.025,-5.13 2.827,0 5.024,2.356 5.024,5.13 0,2.773 -2.25,5.129 -5.024,5.129 C 2.199,5.129 0,2.878 0,0 m 11.83,-5.862 -1.57,-0.575 0,2.877 C 9.055,-5.548 6.961,-6.699 4.764,-6.699 c -3.821,0 -6.491,2.878 -6.491,6.699 0,3.82 2.879,6.751 6.752,6.751 2.356,0 4.03,-0.89 5.129,-2.773 l 0,4.186 c 0,2.46 -0.941,3.454 -3.82,3.454 -0.68,0 -1.518,-0.052 -2.617,-0.156 l 0.47,1.622 c 1.153,0.053 2.042,0.053 2.67,0.053 3.873,0 4.973,-1.1 4.973,-4.816 l 0,-14.183 z"
             style="fill:#000000;fill-opacity:1;fill-rule:nonzero;stroke:none"
             id="path5142"
             inkscape:connector-curvature="0" />
        </g>
        <g
           id="g5144"
           transform="translate(326.0952,86.6419)"
           style="fill:#000000;fill-opacity:1">
          <path
             d="m 0,0 c 0,-4.658 3.559,-8.427 8.217,-8.427 4.658,0 8.217,3.821 8.217,8.427 0,4.605 -3.612,8.374 -8.217,8.374 C 3.664,8.374 0,4.71 0,0 m -0.053,-17.533 -1.674,-0.471 0,26.901 1.674,0.471 0,-4.449 c 1.78,3.298 4.867,5.13 8.27,5.13 5.652,0 9.996,-4.607 9.996,-10.102 0,-5.495 -4.344,-10.049 -9.996,-10.049 -3.664,0 -6.803,1.832 -8.27,4.868 l 0,-12.299 z"
             style="fill:#000000;fill-opacity:1;fill-rule:nonzero;stroke:none"
             id="path5146"
             inkscape:connector-curvature="0" />
        </g>
        <g
           id="g5148"
           transform="translate(350.6928,92.765)"
           style="fill:#000000;fill-opacity:1">
          <path
             d="m 0,0 c 1.309,2.251 3.768,3.664 6.437,3.664 4.45,0 6.28,-2.722 6.28,-8.008 l 0,-11.2 -1.727,-0.472 0,11.724 c 0,4.24 -1.623,6.333 -5.023,6.333 C 2.668,2.041 0,-0.89 0,-4.92 l 0,-10.624 -1.676,-0.472 0,37.893 L 0,22.4 0,0 Z"
             style="fill:#000000;fill-opacity:1;fill-rule:nonzero;stroke:none"
             id="path5150"
             inkscape:connector-curvature="0" />
        </g>
        <g
           id="g5152"
           transform="translate(376.5991,80.7796)"
           style="fill:#000000;fill-opacity:1">
          <path
             d="m 0,0 7.588,15.388 1.467,-0.734 -13.557,-27.057 -1.518,0.732 5.079,9.944 -8.584,16.434 1.57,0.785 L 0,0 Z"
             style="fill:#000000;fill-opacity:1;fill-rule:nonzero;stroke:none"
             id="path5154"
             inkscape:connector-curvature="0" />
        </g>
        <g
           id="g5156"
           transform="translate(416.5307,99.2552)"
           style="fill:#000000;fill-opacity:1">
          <path
             d="m 0,0 c 0,2.722 -1.83,4.763 -4.5,4.763 -2.67,0 -4.867,-2.094 -4.867,-5.025 0,-2.302 1.308,-4.187 3.767,-6.647 C -1.83,-4.867 0,-2.722 0,0 m -12.09,-16.12 c 0,-3.141 2.147,-5.339 5.026,-5.339 2.773,0 4.972,1.989 7.378,5.862 l -6.646,6.857 c -3.873,-1.989 -5.758,-4.345 -5.758,-7.38 m 13.295,2.041 c 1.988,3.141 4.082,6.595 6.385,10.468 L 8.846,-4.449 C 6.752,-8.008 4.607,-11.566 2.408,-15.178 l 5.862,-6.071 -1.151,-1.257 -5.705,5.758 c -2.564,-4.135 -5.496,-6.281 -8.531,-6.281 -3.926,0 -6.752,3.036 -6.752,6.909 0,3.401 2.146,6.018 6.596,8.426 -2.514,2.617 -3.823,4.658 -3.823,7.484 0,3.455 2.879,6.543 6.752,6.543 3.246,0 6.123,-2.565 6.123,-6.281 0,-3.193 -2.144,-5.6 -6.541,-7.955 l 5.967,-6.176 z"
             style="fill:#000000;fill-opacity:1;fill-rule:nonzero;stroke:none"
             id="path5158"
             inkscape:connector-curvature="0" />
        </g>
        <g
           id="g5160"
           transform="translate(444.1655,86.5892)"
           style="fill:#000000;fill-opacity:1">
          <path
             d="m 0,0 c 0,-4.605 3.611,-8.374 8.217,-8.374 4.605,0 8.164,3.716 8.164,8.374 0,4.658 -3.506,8.374 -8.164,8.374 C 3.559,8.374 0,4.605 0,0 m 18.16,-9.106 -1.726,-0.524 0,4.448 c -1.938,-3.192 -4.868,-4.92 -8.217,-4.92 -5.653,0 -9.998,4.554 -9.998,10.102 0,5.495 4.345,10.102 9.998,10.102 3.662,0 6.75,-1.885 8.217,-4.973 l 0,22.924 1.726,0.523 0,-37.682 z"
             style="fill:#000000;fill-opacity:1;fill-rule:nonzero;stroke:none"
             id="path5162"
             inkscape:connector-curvature="0" />
        </g>
        <g
           id="g5164"
           transform="translate(477.0327,95.0159)"
           style="fill:#000000;fill-opacity:1">
          <path
             d="m 0,0 c -4.711,0 -8.322,-3.821 -8.322,-8.27 0,-0.523 0,-1.151 0.156,-1.936 l 13.348,8.06 C 3.924,-0.89 2.355,0 0,0 m -7.59,-11.724 c 1.518,-3.297 4.188,-5.077 7.59,-5.077 2.094,0 4.029,0.681 5.967,1.989 l 0,-1.832 C 4.029,-17.899 2.094,-18.476 0,-18.476 c -5.496,0 -9.945,4.24 -9.945,10.049 0,5.81 4.449,10.102 9.945,10.102 3.244,0 5.443,-1.257 7.902,-4.03 L -7.59,-11.724 Z"
             style="fill:#000000;fill-opacity:1;fill-rule:nonzero;stroke:none"
             id="path5166"
             inkscape:connector-curvature="0" />
        </g>
        <g
           id="g5168"
           transform="translate(495.9253,93.2884)"
           style="fill:#000000;fill-opacity:1">
          <path
             d="m 0,0 c -1.152,1.256 -2.25,1.779 -3.77,1.779 -1.83,0 -3.453,-1.517 -3.453,-3.768 0,-2.25 1.465,-2.878 3.926,-3.716 2.983,-1.047 4.447,-2.616 4.447,-5.442 0,-3.246 -2.406,-5.601 -5.599,-5.601 -1.885,0 -3.664,0.838 -4.815,2.355 l 0.942,1.256 c 1.099,-1.413 2.408,-2.145 3.82,-2.145 2.252,0 3.926,1.569 3.926,3.977 0,2.46 -1.465,3.297 -4.029,4.24 -2.932,1.046 -4.397,2.198 -4.397,4.919 0,3.193 2.356,5.496 5.391,5.496 1.832,0 3.349,-0.786 4.605,-2.303 L 0,0 Z"
             style="fill:#000000;fill-opacity:1;fill-rule:nonzero;stroke:none"
             id="path5170"
             inkscape:connector-curvature="0" />
        </g>
        <g
           id="g5172"
           transform="translate(503.7221,77.221)"
           style="fill:#000000;fill-opacity:1">
          <path
             d="m 0,0 -1.674,-0.472 0,18.999 L 0,18.998 0,0 Z m 0.838,26.901 -1.674,-1.727 -1.676,1.727 1.676,1.675 1.674,-1.675 z"
             style="fill:#000000;fill-opacity:1;fill-rule:nonzero;stroke:none"
             id="path5174"
             inkscape:connector-curvature="0" />
        </g>
        <g
           id="g5176"
           transform="translate(510.9448,89.3109)"
           style="fill:#000000;fill-opacity:1">
          <path
             d="m 0,0 c 0,-2.931 2.512,-5.339 5.756,-5.339 3.299,0 5.758,2.513 5.758,5.339 0,2.826 -2.409,5.391 -5.758,5.391 C 2.512,5.391 0,2.931 0,0 M 12.561,5.548 C 12.193,5.495 11.775,5.443 11.357,5.443 c -0.314,0 -0.629,0.052 -0.943,0.052 1.832,-1.151 2.879,-3.245 2.879,-5.442 0,-2.879 -1.779,-5.182 -4.867,-6.177 3.14,-1.151 4.867,-3.611 4.867,-6.594 0,-4.292 -3.35,-7.275 -8.217,-7.275 -2.67,0 -5.076,1.151 -6.594,3.088 l 0.733,1.779 c 1.517,-2.303 3.506,-3.454 6.176,-3.454 3.505,0 6.123,2.564 6.123,5.914 0,3.141 -2.512,5.548 -6.071,5.548 -1.99,0 -3.349,-0.575 -5.078,-1.884 l -0.941,1.099 c 0.994,0.838 2.041,1.466 3.193,1.832 -2.879,0.942 -4.449,2.983 -4.449,5.809 0,4.344 3.191,7.275 8.111,7.275 0.682,0 1.467,-0.105 2.356,-0.105 1.205,0 2.773,0.262 4.711,0.524 L 12.561,5.548 Z"
             style="fill:#000000;fill-opacity:1;fill-rule:nonzero;stroke:none"
             id="path5178"
             inkscape:connector-curvature="0" />
        </g>
        <g
           id="g5180"
           transform="translate(544.0717,77.221)"
           style="fill:#000000;fill-opacity:1">
          <path
             d="m 0,0 -1.727,-0.472 0,11.724 c 0,4.24 -1.623,6.333 -5.023,6.333 -3.299,0 -5.967,-2.931 -5.967,-6.961 l 0,-10.624 -1.676,-0.472 0,18.79 1.676,0.471 0,-3.245 c 1.309,2.251 3.768,3.664 6.438,3.664 C -1.83,19.208 0,16.486 0,11.2 L 0,0 Z"
             style="fill:#000000;fill-opacity:1;fill-rule:nonzero;stroke:none"
             id="path5182"
             inkscape:connector-curvature="0" />
        </g>
        <path
           d="m 167.152,73.662 379.851,0 0,-1.465 -379.851,0 0,1.465 z"
           style="fill:#000000;fill-opacity:1;fill-rule:nonzero;stroke:none"
           id="path5184"
           inkscape:connector-curvature="0" />
      </g>
    </g>
  </g>
</svg>
